<?xml version="1.0" encoding="UTF-8"?>
<svg id="Capa_1" data-name="Capa 1" xmlns="http://www.w3.org/2000/svg" viewBox="0 0 1068 342">
  <defs>
    <style>
      .cls-1 {
        fill: #9c2542;
        stroke-width: 0px;
      }
    </style>
  </defs>
  <path class="cls-1" d="M696.38,67.19c.25-.42.34-.68.43-.68,21.75.35,43.7-.96,65.2,1.51,28.78,3.31,43.29,21.41,43.18,49.14-.11,26.86-16.41,46.3-43.87,50.07-14.41,1.98-29.18,1.39-43.8,1.82-6.15.18-12.31.06-18.47-.03-.91-.01-1.8-.64-2.7-.98.06-.42.13-.85.19-1.27,3.5-.15,7-.31,11.07-.48.13-1.63.37-3.2.37-4.78.03-27.57-.05-55.14.11-82.71.02-3.52-1.22-5.53-4.2-7.05-2.6-1.33-5.02-3.02-7.51-4.54ZM739.83,166.15c10.41.65,18.67-3.86,24.04-13.16,7.97-13.81,8.89-29,7.94-44.41-.63-10.18-2.31-20.15-8.2-28.86-5.56-8.23-14.56-12.09-23.77-10.19v96.62Z"/>
  <path class="cls-1" d="M881.82,171.78c-31.35-.37-54.62-23.97-54.2-54.99.42-31.32,22.52-53.77,52.46-53.29,31.29.5,54.38,24.18,53.91,55.28-.47,31.08-22.39,53.34-52.17,53ZM911.21,150.17c-4.18-29.83-16.36-55.39-40.48-74.34-4.46-3.51-10.08-6.23-15.72-2.74-5.89,3.65-5.35,10.03-4.48,15.79,3.58,23.69,14.26,44.11,30.4,61.51,4.81,5.18,11.18,9.46,17.64,12.43,6.88,3.16,12.42-1.51,12.64-9.17.03-1.16,0-2.32,0-3.49Z"/>
  <path class="cls-1" d="M291.86,63.5c31.79.44,54.33,23.95,53.85,56.17-.46,30.66-22.53,52.61-52.4,52.1-31.54-.53-54.12-24.06-53.64-55.89.47-30.72,22.46-52.79,52.2-52.38ZM323.45,150.91c-.06-.67-.14-1.82-.27-2.98-2.34-21.1-11.61-39.26-24.09-55.98-5.59-7.49-11.87-14.4-20.57-18.46-9.6-4.48-16.16-.37-16.44,10.17-.03,1.16.1,2.32.22,3.48,2.44,22.01,12.09,40.98,25.81,57.83,5.23,6.42,11.85,12.2,18.91,16.54,9.19,5.66,16.36.74,16.43-10.59Z"/>
  <path class="cls-1" d="M375.4,128.97c6.49,12.16,12.43,22.87,17.91,33.81,1.84,3.67,4.33,5.07,8.12,5.32,7.8.51,14.83-3.35,17.52-9.78,2.84-6.8.87-14.61-5.89-19.41-5.51-3.92-11.76-6.8-17.61-10.27-4.13-2.46-8.42-4.78-12.13-7.78-11.23-9.08-15.03-20.97-11.13-34.75,3.83-13.55,14.1-20.24,27.43-22.05,12.51-1.7,24.9-.24,36.74,4.38,1.27.49,3.06,2.57,2.84,3.49-2.32,9.64-4.99,19.19-7.86,29.84-3.89-6.8-7.3-12.73-10.67-18.69-1.79-3.17-3.5-6.4-5.25-9.59-3.64-6.63-8.09-8.31-15.05-5.69-6.14,2.31-9.37,8.3-8.05,14.8,1.19,5.85,5.16,9.6,9.86,12.6,7.98,5.08,16.2,9.81,24.21,14.85,9.57,6.02,16.59,13.86,17.13,25.86.76,16.94-10.07,30.36-27.76,34.51-12.62,2.96-34.31,1-48.85-4.49,1.33-5.9,2.64-11.84,4-17.77,1.36-5.91,2.76-11.81,4.49-19.18Z"/>
  <path class="cls-1" d="M182.35,68.68v97.78h12.84c-2.89,3.34-53.91,3.59-58.12.23h13.13v-97.69c-19.61,5.06-26.45,21.41-34.91,37.17v-39.69h102.16v39.69c-8.37-15.88-15.53-31.88-35.11-37.49Z"/>
  <path class="cls-1" d="M567.24,106.43c-8.54-16.23-15.68-32.23-35.13-37.65v97.85h12.98c-3.36,2.99-53.33,3.33-57.55.21,3.93-.2,7.87-.39,12.21-.61v-97.29c-19.46,5.18-26.4,21.49-34.92,37.45v-39.86h102.41v39.9Z"/>
  <path class="cls-1" d="M678.42,166.9c-3.34,2.9-49.7,2.89-53.71-.07,4.34-.21,7.83-.38,12.28-.59-1.95-4.77-3.78-9.23-5.6-13.69q-5.13-12.58-18.5-12.58c-5.33,0-10.67-.18-15.98.12-1.43.08-3.59,1.32-4.02,2.53-2.73,7.61-5.08,15.35-7.8,23.84h14.63c-2.69,3.31-28.08,3.6-32.72.31,8,1.15,8.58-4.73,10.52-9.1,13.28-30.01,26.52-60.04,39.65-90.12,1.2-2.75,2.42-4.17,5.7-4.19,3.37-.02,4.53,1.62,5.7,4.3,13.54,30.98,27.28,61.88,40.66,92.93,1.89,4.38,3.95,7.01,9.18,6.32ZM624.69,136.74c-5.7-13.41-11.11-26.15-17.03-40.09-4.55,13.97-8.73,26.77-13.07,40.09h30.1Z"/>
  <path class="cls-1" d="M583,273.38c2.8-14.08,5.54-27.86,8.35-41.98,6.91,0,13.53-.18,20.13.06,4.75.17,9.39,1.13,11.34,6.41,1.65,4.47-.32,9.44-5.18,13.36-.38.3-.87.47-1.64.87,4.56,3.5,6.44,7.38,4.79,12.45-1.74,5.37-5.81,8.38-11.05,8.69-8.72.5-17.49.14-26.74.14ZM589.54,269.28c4.46,0,8.44.15,12.4-.05,2.95-.15,6.03-.31,8.78-1.25,3.47-1.19,5.21-4.14,4.67-7.9-.54-3.69-3.5-4.69-6.63-4.79-5.42-.18-10.85-.05-16.44-.05-.96,4.87-1.82,9.2-2.77,14.04ZM593.91,249.8c5.56,0,11.17.5,16.65-.15,4.64-.56,7.37-4.62,6.66-8.4-.84-4.4-4.34-4.88-7.97-5q-13.85-.43-15.34,13.55Z"/>
  <path class="cls-1" d="M535.73,231.6h5.8c-1.52,7.94-2.96,15.66-4.48,23.37-1.59,8.08.27,12.77,5.8,14.35,7.34,2.1,14.26-.78,16.42-8.14,2.8-9.51,4.44-19.35,6.67-29.43h5.71c-2.23,10.28-3.77,20.6-6.78,30.46-3.36,10.99-15.05,15.77-25.91,11.7-5.73-2.15-9.29-7.97-8.25-14.89,1.37-9.14,3.31-18.19,5.02-27.42Z"/>
  <path class="cls-1" d="M471.24,265.07c1.15,1.31,2.12,2.42,3.08,3.51-7.03,7-18.95,8.65-27.79,3.98-7.44-3.93-10.35-11.88-8-22.49,2.06-9.36,7.73-15.8,16.93-18.46,8.32-2.41,16.41-1.95,23.9,5.39-1.5,1.34-2.77,2.47-3.99,3.56-13.32-10.84-28.87-1.55-31.09,9.88-1.2,6.18-1.58,12.16,3.9,16.37,5.48,4.21,11.77,3.97,17.96,1.34,1.66-.71,3.13-1.85,5.11-3.06Z"/>
  <path class="cls-1" d="M493.61,269.16h23.01c-.49,1.95-.84,3.35-1.21,4.83h-28.65c2.67-13.61,5.18-27.02,8.1-40.35.28-1.28,3.17-1.98,4.85-2.95l1.12,1.28c-2.35,12.1-4.7,24.21-7.22,37.19Z"/>
</svg>